<svg xmlns:xlink="http://www.w3.org/1999/xlink" height="16" width="19" title="Real Time" alt="Real Time" class="styledSvg-sc-1hvwmfy-0 kPPPFY" viewBox="0 0 28 24" xmlns="http://www.w3.org/2000/svg"><path d="M24 0a4 4 0 014 4v16a4 4 0 01-4 4H4a4 4 0 01-4-4V4a4 4 0 014-4h20zM10.147 8.032H6.241V18h1.946v-3.976h1.4L11.533 18h2.254l-2.226-4.298c.966-.336 1.82-1.218 1.82-2.618 0-1.666-1.19-3.052-3.234-3.052zm11.854 0h-7.154v1.736h2.604V18h1.946V9.768h2.604V8.032zM10.035 9.768c.854 0 1.4.532 1.4 1.302 0 .784-.546 1.316-1.4 1.316H8.187V9.768h1.848z" fill-rule="evenodd"></path></svg>